<?xml version="1.0" encoding="utf-8"?>
<!-- Generator: Adobe Illustrator 21.0.0, SVG Export Plug-In . SVG Version: 6.00 Build 0)  -->
<svg version="1.1" id="Layer_1" xmlns="http://www.w3.org/2000/svg" xmlns:xlink="http://www.w3.org/1999/xlink" x="0px" y="0px"
	 viewBox="0 0 16 16" style="enable-background:new 0 0 16 16;" xml:space="preserve">
<style type="text/css">
	.st0{fill:#C2344F;}
</style>
<g id="Logo-Red">
	<g id="Red-Logo">
		<path id="Rectangle-Copy-4" class="st0" d="M3,5.3L3,5.3c0.6,0,1,0.4,1,1v3.3c0,0.6-0.4,1-1,1l0,0c-0.6,0-1-0.4-1-1V6.3
			C2,5.8,2.4,5.3,3,5.3z"/>
		<path id="Rectangle-Copy-5" class="st0" d="M6.3,2.7L6.3,2.7c0.6,0,1,0.4,1,1v8.7c0,0.6-0.4,1-1,1l0,0c-0.6,0-1-0.4-1-1V3.7
			C5.3,3.1,5.8,2.7,6.3,2.7z"/>
		<path id="Rectangle-Copy-6" class="st0" d="M9.7,6L9.7,6c0.6,0,1,0.4,1,1v2c0,0.6-0.4,1-1,1l0,0c-0.6,0-1-0.4-1-1V7
			C8.7,6.4,9.1,6,9.7,6z"/>
		<path id="Rectangle-Copy-7" class="st0" d="M13,0L13,0c0.6,0,1,0.4,1,1v14c0,0.6-0.4,1-1,1l0,0c-0.6,0-1-0.4-1-1V1
			C12,0.4,12.4,0,13,0z"/>
	</g>
</g>
</svg>
