<?xml version="1.0" encoding="UTF-8"?>
<svg width="613px" height="192px" viewBox="0 0 613 192" version="1.1" xmlns="http://www.w3.org/2000/svg" xmlns:xlink="http://www.w3.org/1999/xlink">
    <!-- Generator: Sketch 43.1 (39012) - http://www.bohemiancoding.com/sketch -->
    <title>Full Logo Colored</title>
    <desc>Created with Sketch.</desc>
    <defs></defs>
    <g id="Symbols" stroke="none" stroke-width="1" fill="none" fill-rule="evenodd">
        <g id="Full-Logo-Colored">
            <g id="Logo-Red" fill="#C2344F">
                <g id="Red-Logo">
                    <rect id="Rectangle-Copy-4" x="0" y="64" width="24" height="64" rx="12"></rect>
                    <rect id="Rectangle-Copy-5" x="40" y="32" width="24" height="128" rx="12"></rect>
                    <rect id="Rectangle-Copy-6" x="80" y="72" width="24" height="48" rx="12"></rect>
                    <rect id="Rectangle-Copy-7" x="120" y="0" width="24" height="192" rx="12"></rect>
                </g>
            </g>
            <g id="Text-dark-black" transform="translate(176.000000, 41.000000)" fill="#333333">
                <path d="M0,6.912 L34.272,6.912 C39.1680245,6.912 43.8959772,7.3919952 48.456,8.352 C53.0160228,9.3120048 57.0239827,10.9199887 60.48,13.176 C63.9360173,15.4320113 66.6959897,18.455981 68.76,22.248 C70.8240103,26.040019 71.856,30.7679717 71.856,36.432 C71.856,42.8640322 70.752011,48.0479803 68.544,51.984 C66.335989,55.9200197 63.3600187,58.9679892 59.616,61.128 C55.8719813,63.2880108 51.5280247,64.7519962 46.584,65.52 C41.6399753,66.2880038 36.4800269,66.672 31.104,66.672 L18.144,66.672 L18.144,108.864 L0,108.864 L0,6.912 Z M29.088,51.12 C31.680013,51.12 34.3679861,51.024001 37.152,50.832 C39.9360139,50.639999 42.5039882,50.0640048 44.856,49.104 C47.2080118,48.1439952 49.1279926,46.7040096 50.616,44.784 C52.1040074,42.8639904 52.848,40.1760173 52.848,36.72 C52.848,33.5519842 52.1760067,31.0320094 50.832,29.16 C49.4879933,27.2879906 47.7600106,25.848005 45.648,24.84 C43.5359894,23.831995 41.184013,23.1840014 38.592,22.896 C35.999987,22.6079986 33.504012,22.464 31.104,22.464 L18.144,22.464 L18.144,51.12 L29.088,51.12 Z M103.68,49.392 L103.968,49.392 C105.312007,46.5119856 107.687983,43.8960118 111.096,41.544 C114.504017,39.1919882 118.895973,38.016 124.272,38.016 C128.880023,38.016 132.791984,38.7839923 136.008,40.32 C139.224016,41.8560077 141.83999,43.8719875 143.856,46.368 C145.87201,48.8640125 147.311996,51.7439837 148.176,55.008 C149.040004,58.2720163 149.472,61.6799822 149.472,65.232 L149.472,108.864 L132.192,108.864 L132.192,73.872 C132.192,71.9519904 132.096001,69.8160118 131.904,67.464 C131.711999,65.1119882 131.208004,62.9040103 130.392,60.84 C129.575996,58.7759897 128.304009,57.048007 126.576,55.656 C124.847991,54.263993 122.496015,53.568 119.52,53.568 C116.639986,53.568 114.21601,54.0479952 112.248,55.008 C110.27999,55.9680048 108.648006,57.2639918 107.352,58.896 C106.055994,60.5280082 105.120003,62.3999894 104.544,64.512 C103.967997,66.6240106 103.68,68.8319885 103.68,71.136 L103.68,108.864 L86.4,108.864 L86.4,0 L103.68,0 L103.68,49.392 Z M165.6,74.304 C165.6,68.8319726 166.58399,63.8640223 168.552,59.4 C170.52001,54.9359777 173.183983,51.1200158 176.544,47.952 C179.904017,44.7839842 183.887977,42.3360086 188.496,40.608 C193.104023,38.8799914 197.999974,38.016 203.184,38.016 C208.368026,38.016 213.263977,38.8799914 217.872,40.608 C222.480023,42.3360086 226.463983,44.7839842 229.824,47.952 C233.184017,51.1200158 235.84799,54.9359777 237.816,59.4 C239.78401,63.8640223 240.768,68.8319726 240.768,74.304 C240.768,79.7760274 239.78401,84.7439777 237.816,89.208 C235.84799,93.6720223 233.184017,97.4879842 229.824,100.656 C226.463983,103.824016 222.480023,106.271991 217.872,108 C213.263977,109.728009 208.368026,110.592 203.184,110.592 C197.999974,110.592 193.104023,109.728009 188.496,108 C183.887977,106.271991 179.904017,103.824016 176.544,100.656 C173.183983,97.4879842 170.52001,93.6720223 168.552,89.208 C166.58399,84.7439777 165.6,79.7760274 165.6,74.304 Z M182.88,74.304 C182.88,76.9920134 183.335995,79.5839875 184.248,82.08 C185.160005,84.5760125 186.503991,86.7839904 188.28,88.704 C190.056009,90.6240096 192.191988,92.1599942 194.688,93.312 C197.184012,94.4640058 200.015984,95.04 203.184,95.04 C206.352016,95.04 209.183988,94.4640058 211.68,93.312 C214.176012,92.1599942 216.311991,90.6240096 218.088,88.704 C219.864009,86.7839904 221.207995,84.5760125 222.12,82.08 C223.032005,79.5839875 223.488,76.9920134 223.488,74.304 C223.488,71.6159866 223.032005,69.0240125 222.12,66.528 C221.207995,64.0319875 219.864009,61.8240096 218.088,59.904 C216.311991,57.9839904 214.176012,56.4480058 211.68,55.296 C209.183988,54.1439942 206.352016,53.568 203.184,53.568 C200.015984,53.568 197.184012,54.1439942 194.688,55.296 C192.191988,56.4480058 190.056009,57.9839904 188.28,59.904 C186.503991,61.8240096 185.160005,64.0319875 184.248,66.528 C183.335995,69.0240125 182.88,71.6159866 182.88,74.304 Z M256.896,39.744 L273.312,39.744 L273.312,50.832 L273.6,50.832 C275.232008,47.3759827 277.727983,44.3760127 281.088,41.832 C284.448017,39.2879873 289.007971,38.016 294.768,38.016 C299.376023,38.016 303.287984,38.7839923 306.504,40.32 C309.720016,41.8560077 312.33599,43.8719875 314.352,46.368 C316.36801,48.8640125 317.807996,51.7439837 318.672,55.008 C319.536004,58.2720163 319.968,61.6799822 319.968,65.232 L319.968,108.864 L302.688,108.864 L302.688,73.872 C302.688,71.9519904 302.592001,69.8160118 302.4,67.464 C302.207999,65.1119882 301.704004,62.9040103 300.888,60.84 C300.071996,58.7759897 298.800009,57.048007 297.072,55.656 C295.343991,54.263993 292.992015,53.568 290.016,53.568 C287.135986,53.568 284.71201,54.0479952 282.744,55.008 C280.77599,55.9680048 279.144006,57.2639918 277.848,58.896 C276.551994,60.5280082 275.616003,62.3999894 275.04,64.512 C274.463997,66.6240106 274.176,68.8319885 274.176,71.136 L274.176,108.864 L256.896,108.864 L256.896,39.744 Z M339.84,39.744 L357.12,39.744 L357.12,108.864 L339.84,108.864 L339.84,39.744 Z M337.392,16.272 C337.392,13.4879861 338.42399,11.0640103 340.488,9 C342.55201,6.93598968 345.167984,5.904 348.336,5.904 C351.504016,5.904 354.167989,6.88799016 356.328,8.856 C358.488011,10.8240098 359.568,13.2959851 359.568,16.272 C359.568,19.2480149 358.488011,21.7199902 356.328,23.688 C354.167989,25.6560098 351.504016,26.64 348.336,26.64 C345.167984,26.64 342.55201,25.6080103 340.488,23.544 C338.42399,21.4799897 337.392,19.0560139 337.392,16.272 Z M424.224,60.48 C422.20799,58.3679894 420.096011,56.6880062 417.888,55.44 C415.679989,54.1919938 413.424012,53.568 411.12,53.568 C407.951984,53.568 405.120012,54.1439942 402.624,55.296 C400.127988,56.4480058 397.992009,57.9839904 396.216,59.904 C394.439991,61.8240096 393.096005,64.0319875 392.184,66.528 C391.271995,69.0240125 390.816,71.6159866 390.816,74.304 C390.816,76.9920134 391.271995,79.5839875 392.184,82.08 C393.096005,84.5760125 394.439991,86.7839904 396.216,88.704 C397.992009,90.6240096 400.127988,92.1599942 402.624,93.312 C405.120012,94.4640058 407.951984,95.04 411.12,95.04 C413.808013,95.04 416.303988,94.4880055 418.608,93.384 C420.912012,92.2799945 422.879992,90.6720106 424.512,88.56 L436.032,100.944 C434.303991,102.672009 432.312011,104.159994 430.056,105.408 C427.799989,106.656006 425.520012,107.663996 423.216,108.432 C420.911988,109.200004 418.704011,109.751998 416.592,110.088 C414.479989,110.424002 412.656008,110.592 411.12,110.592 C405.935974,110.592 401.040023,109.728009 396.432,108 C391.823977,106.271991 387.840017,103.824016 384.48,100.656 C381.119983,97.4879842 378.45601,93.6720223 376.488,89.208 C374.51999,84.7439777 373.536,79.7760274 373.536,74.304 C373.536,68.8319726 374.51999,63.8640223 376.488,59.4 C378.45601,54.9359777 381.119983,51.1200158 384.48,47.952 C387.840017,44.7839842 391.823977,42.3360086 396.432,40.608 C401.040023,38.8799914 405.935974,38.016 411.12,38.016 C415.536022,38.016 419.975978,38.8559916 424.44,40.536 C428.904022,42.2160084 432.815983,44.8799818 436.176,48.528 L424.224,60.48 Z" id="Phonic"></path>
            </g>
        </g>
    </g>
</svg>