<svg xmlns="http://www.w3.org/2000/svg" viewBox="0 0 49.47 49.47"><defs><style>.cls-1{fill:#26a69a;}</style></defs><title>Asset 4</title><g id="Layer_2" data-name="Layer 2"><g id="Layer_2-2" data-name="Layer 2"><path class="cls-1" d="M12.37,4.12a2.06,2.06,0,1,1-2.06,2.06A2.06,2.06,0,0,1,12.37,4.12ZM43.29,22.67a2.06,2.06,0,1,1-2.06,2.06A2.06,2.06,0,0,1,43.29,22.67ZM12.37,41.23a2.06,2.06,0,1,1-2.06,2.06A2.06,2.06,0,0,1,12.37,41.23ZM12.37,0a6.18,6.18,0,1,0,6.18,6.18A6.18,6.18,0,0,0,12.37,0ZM43.29,18.55a6.18,6.18,0,1,0,6.18,6.18A6.18,6.18,0,0,0,43.29,18.55ZM12.37,37.1a6.18,6.18,0,1,0,6.18,6.18A6.18,6.18,0,0,0,12.37,37.1Zm9.46-35,.85,0a22.66,22.66,0,0,1,20.2,12.41,10.17,10.17,0,0,0-4.12,1.05A18.55,18.55,0,0,0,22.67,6.18,10.24,10.24,0,0,0,21.83,2.1ZM42.88,35a22.66,22.66,0,0,1-20.2,12.41l-.85,0a10.24,10.24,0,0,0,.85-4.08,18.55,18.55,0,0,0,16.08-9.34A10.1,10.1,0,0,0,42.88,35Zm-39,2.44A22.67,22.67,0,0,1,3.9,12,10.36,10.36,0,0,0,7,14.92,18.39,18.39,0,0,0,7,34.55,10.34,10.34,0,0,0,3.9,37.44Z"/></g></g></svg>