<svg xmlns="http://www.w3.org/2000/svg" viewBox="0 0 54.55 50"><defs><style>.cls-1{fill:#26a69a;}</style></defs><title>Asset 2</title><g id="Layer_2" data-name="Layer 2"><g id="Layer_2-2" data-name="Layer 2"><path class="cls-1" d="M13.73,37.49l-3.37,3.42A26.08,26.08,0,0,1,0,20.45,26.07,26.07,0,0,1,10.37,0l3.37,3.42a21.74,21.74,0,0,0-8.65,17A21.74,21.74,0,0,0,13.73,37.49Zm20.36-17A6.82,6.82,0,1,0,25,26.85V50h4.55V26.85A6.8,6.8,0,0,0,34.09,20.45Zm-18.82,0a13,13,0,0,1,5.19-10.22L17.09,6.82a17.38,17.38,0,0,0-6.91,13.64,17.38,17.38,0,0,0,6.91,13.64l3.37-3.41A13,13,0,0,1,15.27,20.45ZM44.18,0,40.81,3.42a21.74,21.74,0,0,1,8.65,17,21.74,21.74,0,0,1-8.65,17l3.37,3.42A26.08,26.08,0,0,0,54.55,20.45,26.08,26.08,0,0,0,44.18,0ZM37.46,6.82l-3.37,3.41a13,13,0,0,1,5.19,10.22,13,13,0,0,1-5.19,10.22l3.37,3.41a17.38,17.38,0,0,0,6.91-13.64A17.38,17.38,0,0,0,37.46,6.82Z"/></g></g></svg>