<svg xmlns="http://www.w3.org/2000/svg" viewBox="0 0 53.39 48.94"><defs><style>.cls-1{fill:#26a69a;}</style></defs><title>Asset 3</title><g id="Layer_2" data-name="Layer 2"><g id="Layer_2-2" data-name="Layer 2"><path class="cls-1" d="M13.35,48.94V24.47c-9,0-13.35,6-13.35,12.24S4.44,48.94,13.35,48.94Zm40-12.24c0-6.2-4.37-12.24-13.35-12.24V48.94C49,48.94,53.39,43,53.39,36.71ZM26.7,6.63c-8.63,0-15.26,5.23-17.23,13.78A19.47,19.47,0,0,0,4.66,22c1.4-12.24,9.61-22,22-22S47.36,9.76,48.76,22a19.41,19.41,0,0,0-4.83-1.6C42,11.85,35.33,6.61,26.7,6.63Z"/></g></g></svg>