<svg xmlns="http://www.w3.org/2000/svg" viewBox="0 0 37.5 21.87"><defs><style>.cls-1{fill:#424242;}</style></defs><title>Asset 7</title><g id="Layer_2" data-name="Layer 2"><g id="Layer_2-2" data-name="Layer 2"><path class="cls-1" d="M10.94,9.37v3.75h6.2a5.91,5.91,0,0,1-6.2,4.72A6.91,6.91,0,0,1,10.94,4,6.16,6.16,0,0,1,15.3,5.72l3-2.86A10.48,10.48,0,0,0,10.94,0a10.94,10.94,0,0,0,0,21.87c6.31,0,10.5-4.44,10.5-10.69a10,10,0,0,0-.17-1.81Zm0,0L37.5,12.5H32.81v4.69H29.69V12.5H25V9.37h4.69V4.69h3.12V9.37H37.5V12.5Z"/></g></g></svg>