<svg xmlns="http://www.w3.org/2000/svg" xmlns:xlink="http://www.w3.org/1999/xlink" viewBox="0 0 370.72 118.61"><defs><style>.cls-1{isolation:isolate;}.cls-2,.cls-3{opacity:0.6;}.cls-10,.cls-3,.cls-4{mix-blend-mode:soft-light;}.cls-3{fill:url(#linear-gradient);}.cls-4{fill:url(#linear-gradient-2);}.cls-5{fill:#fff;}.cls-6{fill:#b71c1c;}.cls-7{fill:#c62828;}.cls-8{fill:#e53935;}.cls-9{fill:#d32f2f;}.cls-11{fill:url(#linear-gradient-4);}.cls-12{fill:url(#linear-gradient-5);}.cls-13{fill:url(#linear-gradient-6);}.cls-14{fill:url(#linear-gradient-7);}.cls-15{fill:url(#linear-gradient-8);}.cls-16{fill:url(#linear-gradient-9);}.cls-17{fill:url(#linear-gradient-10);}.cls-18{fill:url(#linear-gradient-11);}.cls-19{fill:url(#linear-gradient-12);}.cls-20{fill:url(#linear-gradient-13);}.cls-21{fill:url(#linear-gradient-14);}.cls-22{fill:url(#linear-gradient-15);}</style><linearGradient id="linear-gradient" x1="52.72" y1="100.95" x2="73.04" y2="100.95" gradientUnits="userSpaceOnUse"><stop offset="0" stop-color="#fff"/><stop offset="1"/></linearGradient><linearGradient id="linear-gradient-2" x1="129.2" y1="35.87" x2="129.2" y2="35.87" xlink:href="#linear-gradient"/><linearGradient id="linear-gradient-4" x1="0" y1="59.27" x2="89.54" y2="59.27" xlink:href="#linear-gradient"/><linearGradient id="linear-gradient-5" x1="56.54" y1="59.27" x2="146.08" y2="59.27" xlink:href="#linear-gradient"/><linearGradient id="linear-gradient-6" x1="112.43" y1="59.52" x2="201.97" y2="59.52" xlink:href="#linear-gradient"/><linearGradient id="linear-gradient-7" x1="168.83" y1="59.6" x2="258.36" y2="59.6" xlink:href="#linear-gradient"/><linearGradient id="linear-gradient-8" x1="224.71" y1="59.6" x2="314.25" y2="59.6" xlink:href="#linear-gradient"/><linearGradient id="linear-gradient-9" x1="281.18" y1="59.6" x2="370.72" y2="59.6" xlink:href="#linear-gradient"/><linearGradient id="linear-gradient-10" x1="241.78" y1="1.19" x2="186.36" y2="118.44" xlink:href="#linear-gradient"/><linearGradient id="linear-gradient-11" x1="240.75" y1="-0.65" x2="297.92" y2="119.23" xlink:href="#linear-gradient"/><linearGradient id="linear-gradient-12" x1="128.63" y1="-0.38" x2="74.67" y2="117.46" xlink:href="#linear-gradient"/><linearGradient id="linear-gradient-13" x1="127.75" y1="-0.71" x2="185.21" y2="116.83" xlink:href="#linear-gradient"/><linearGradient id="linear-gradient-14" x1="84.56" y1="-21.32" x2="26.52" y2="96.23" xlink:href="#linear-gradient"/><linearGradient id="linear-gradient-15" x1="356.9" y1="-1.4" x2="296.81" y2="117.02" xlink:href="#linear-gradient"/></defs><title>Asset 1</title><g class="cls-1"><g id="Layer_2" data-name="Layer 2"><g id="Layer_2-2" data-name="Layer 2"><polygon class="cls-2" points="73.04 83.49 52.72 111.45 55.71 118.42 73.04 83.49"/><path d="M129.2,35.87"/><polygon class="cls-2" points="73.04 83.49 52.72 111.45 55.71 118.42 73.04 83.49"/><path d="M129.2,35.87"/><polygon class="cls-3" points="73.04 83.49 52.72 111.45 55.71 118.42 73.04 83.49"/><path class="cls-4" d="M129.2,35.87"/><path class="cls-4" d="M129.2,35.87"/><polygon class="cls-2" points="224.88 0.58 236.55 46.09 241.54 36.07 224.88 0.58"/><polygon class="cls-2" points="185.71 84.24 164.96 111.29 168.83 118.61 185.71 84.24"/><polygon class="cls-2" points="112.3 0 122.71 49.54 129.21 35.58 112.3 0"/><polygon class="cls-5" points="89.54 118.28 55.96 118.28 0 0.25 33.58 0.25 89.54 118.28"/><polygon class="cls-5" points="56.54 118.28 90.12 118.28 146.08 0.25 112.5 0.25 56.54 118.28"/><polygon class="cls-5" points="201.97 118.53 168.39 118.53 112.43 0.51 146.01 0.51 201.97 118.53"/><polygon class="cls-5" points="168.83 118.61 202.4 118.61 258.36 0.58 224.79 0.58 168.83 118.61"/><polygon class="cls-5" points="314.25 118.61 280.67 118.61 224.71 0.58 258.29 0.58 314.25 118.61"/><polygon class="cls-5" points="281.18 118.61 314.76 118.61 370.72 0.58 337.14 0.58 281.18 118.61"/><polygon class="cls-6" points="89.54 118.28 55.96 118.28 0 0.25 33.58 0.25 89.54 118.28"/><polygon class="cls-7" points="56.54 118.28 90.12 118.28 146.08 0.25 112.5 0.25 56.54 118.28"/><polygon class="cls-8" points="201.97 118.53 168.39 118.53 112.43 0.51 146.01 0.51 201.97 118.53"/><polygon class="cls-6" points="168.83 118.61 202.4 118.61 258.36 0.58 224.79 0.58 168.83 118.61"/><polygon class="cls-9" points="314.25 118.61 280.67 118.61 224.71 0.58 258.29 0.58 314.25 118.61"/><polygon class="cls-6" points="281.18 118.61 314.76 118.61 370.72 0.58 337.14 0.58 281.18 118.61"/><g class="cls-10"><polygon class="cls-11" points="89.54 118.28 55.96 118.28 0 0.25 33.58 0.25 89.54 118.28"/><polygon class="cls-12" points="56.54 118.28 90.12 118.28 146.08 0.25 112.5 0.25 56.54 118.28"/><polygon class="cls-13" points="201.97 118.53 168.39 118.53 112.43 0.51 146.01 0.51 201.97 118.53"/><polygon class="cls-14" points="168.83 118.61 202.4 118.61 258.36 0.58 224.79 0.58 168.83 118.61"/><polygon class="cls-15" points="314.25 118.61 280.67 118.61 224.71 0.58 258.29 0.58 314.25 118.61"/><polygon class="cls-16" points="281.18 118.61 314.76 118.61 370.72 0.58 337.14 0.58 281.18 118.61"/></g><g class="cls-10"><polygon class="cls-17" points="169.41 118.61 202.99 118.61 258.95 0.58 225.37 0.58 169.41 118.61"/><polygon class="cls-18" points="314.25 118.61 280.67 118.61 224.71 0.58 258.29 0.58 314.25 118.61"/><polygon class="cls-19" points="56.54 118.28 90.12 118.28 146.08 0.25 112.5 0.25 56.54 118.28"/><polygon class="cls-20" points="201.97 118.53 168.39 118.53 112.43 0.51 146.01 0.51 201.97 118.53"/><polygon class="cls-21" points="89.54 118.28 55.96 118.28 0 0.25 33.58 0.25 89.54 118.28"/><polygon class="cls-22" points="281.18 118.61 314.76 118.61 370.72 0.58 337.14 0.58 281.18 118.61"/></g></g></g></g></svg>