<?xml version="1.0" encoding="UTF-8"?>
<svg width="551px" height="128px" viewBox="0 0 551 128" version="1.1" xmlns="http://www.w3.org/2000/svg" xmlns:xlink="http://www.w3.org/1999/xlink">
    <!-- Generator: Sketch 48.2 (47327) - http://www.bohemiancoding.com/sketch -->
    <title>logo/fulllogo/black</title>
    <desc>Created with Sketch.</desc>
    <defs></defs>
    <g id="Symbols" stroke="none" stroke-width="1" fill="none" fill-rule="evenodd">
        <g id="logo/fulllogo/black">
            <g id="logo/fulllogo">
                <g id="logo/text/black" transform="translate(128.000000, 0.000000)" fill="#2F283C">
                    <path d="M53.4161194,39.5062687 C52.9066641,40.3213971 52.3717441,40.8945257 51.8113433,41.2256716 C51.2509425,41.5568176 50.5377158,41.7223881 49.6716418,41.7223881 C48.7546223,41.7223881 47.7739356,41.4676642 46.7295522,40.958209 C45.6851689,40.4487537 44.4752308,39.8756251 43.0997015,39.238806 C41.7241722,38.6019869 40.1576207,38.0288583 38.4,37.519403 C36.6423793,37.0099477 34.5663801,36.7552239 32.1719403,36.7552239 C28.4529167,36.7552239 25.5235928,37.5448677 23.3838806,39.1241791 C21.2441684,40.7034905 20.1743284,42.7667534 20.1743284,45.3140299 C20.1743284,46.9952323 20.7219846,48.4089495 21.8173134,49.5552239 C22.9126423,50.7014983 24.3645681,51.7076574 26.1731343,52.5737313 C27.9817006,53.4398053 30.0322273,54.216713 32.3247761,54.9044776 C34.6173249,55.5922422 36.960784,56.3436775 39.3552239,57.158806 C41.7496637,57.9739344 44.0931229,58.9036764 46.3856716,59.9480597 C48.6782204,60.992443 50.7287472,62.3170069 52.5373134,63.921791 C54.3458797,65.5265752 55.7978055,67.44974 56.8931343,69.6913433 C57.9884632,71.9329465 58.5361194,74.633019 58.5361194,77.7916418 C58.5361194,81.5616109 57.8483651,85.038591 56.4728358,88.2226866 C55.0973066,91.4067821 53.0849884,94.1577994 50.4358209,96.4758209 C47.7866534,98.7938424 44.5134523,100.602382 40.6161194,101.901493 C36.7187865,103.200604 32.2483834,103.850149 27.2047761,103.850149 C24.5046631,103.850149 21.8682716,103.608162 19.2955224,103.124179 C16.7227732,102.640197 14.2519521,101.965178 11.8829851,101.099104 C9.51401801,100.23303 7.32339315,99.2141352 5.31104478,98.0423881 C3.29869641,96.8706409 1.52836585,95.5970218 0,94.2214925 L4.3558209,87.038209 C4.91622171,86.172135 5.57850364,85.509853 6.34268657,85.0513433 C7.10686949,84.5928335 8.07482001,84.3635821 9.24656716,84.3635821 C10.4183143,84.3635821 11.5263629,84.6947231 12.5707463,85.3570149 C13.6151296,86.0193068 14.8250677,86.7325335 16.200597,87.4967164 C17.5761263,88.2608993 19.1936225,88.974126 21.0531343,89.6364179 C22.9126461,90.2987098 25.2688415,90.6298507 28.121791,90.6298507 C30.3633943,90.6298507 32.2865591,90.3623907 33.8913433,89.8274627 C35.4961274,89.2925346 36.8206913,88.5920441 37.8650746,87.7259701 C38.909458,86.8598962 39.6736294,85.8537371 40.1576119,84.7074627 C40.6415945,83.5611883 40.8835821,82.3767225 40.8835821,81.1540299 C40.8835821,79.3199908 40.3359259,77.8171203 39.240597,76.6453731 C38.1452682,75.473626 36.6933424,74.4547307 34.8847761,73.5886567 C33.0762099,72.7225827 31.0129469,71.9456751 28.6949254,71.2579104 C26.3769038,70.5701458 24.0079723,69.8187105 21.5880597,69.0035821 C19.1681471,68.1884536 16.7992156,67.2332393 14.481194,66.1379104 C12.1631725,65.0425816 10.0999095,63.6543368 8.29134328,61.9731343 C6.48277703,60.2919319 5.03085125,58.2286689 3.93552239,55.7832836 C2.84019353,53.3378982 2.29253731,50.3831019 2.29253731,46.918806 C2.29253731,43.7092377 2.92934687,40.6525518 4.20298507,37.7486567 C5.47662328,34.8447616 7.34884337,32.3102596 9.81970149,30.1450746 C12.2905596,27.9798897 15.3727179,26.2477677 19.0662687,24.9486567 C22.7598195,23.6495457 27.0264435,23 31.8662687,23 C37.2664947,23 42.1826644,23.8915334 46.6149254,25.6746269 C51.0471863,27.4577204 54.7406817,29.8011795 57.6955224,32.7050746 L53.4161194,39.5062687 Z M99.4197015,103.622687 C92.6439462,103.622687 87.4221079,101.699522 83.7540299,97.8531343 C80.0859518,94.0067469 78.2519403,88.6957553 78.2519403,81.92 L78.2519403,38.1325373 L70.3044776,38.1325373 C69.285567,38.1325373 68.4067699,37.8013963 67.6680597,37.1391045 C66.9293495,36.4768126 66.56,35.4833897 66.56,34.158806 L66.56,26.6698507 L79.1689552,24.6065672 L83.1426866,3.20955224 C83.3464687,2.19064167 83.8177077,1.40099783 84.5564179,0.840597015 C85.2951281,0.280196203 86.22487,0 87.3456716,0 L97.1271642,0 L97.1271642,24.6829851 L117.76,24.6829851 L117.76,38.1325373 L97.1271642,38.1325373 L97.1271642,80.6208955 C97.1271642,83.0662809 97.7385013,84.9767095 98.961194,86.3522388 C100.183887,87.7277681 101.814119,88.4155224 103.85194,88.4155224 C105.023687,88.4155224 106.004374,88.2754243 106.79403,87.9952239 C107.583686,87.7150235 108.27144,87.4220911 108.857313,87.1164179 C109.443187,86.8107447 109.965371,86.5178123 110.423881,86.2376119 C110.88239,85.9574115 111.340893,85.8173134 111.799403,85.8173134 C112.359804,85.8173134 112.818307,85.9574115 113.174925,86.2376119 C113.531544,86.5178123 113.91363,86.9381067 114.321194,87.4985075 L119.976119,96.6686567 C117.225061,98.9612055 114.066485,100.693327 110.500299,101.865075 C106.934112,103.036822 103.240616,103.622687 99.4197015,103.622687 Z M132.814328,102.4 L132.814328,23.9952239 L143.894925,23.9952239 C145.830855,23.9952239 147.180892,24.3518372 147.945075,25.0650746 C148.709258,25.778312 149.218705,27.0009864 149.473433,28.7331343 L150.619701,38.2089552 C153.421706,33.36913 156.707643,29.5482727 160.477612,26.7462687 C164.247581,23.9442646 168.475996,22.5432836 173.162985,22.5432836 C177.034845,22.5432836 180.244365,23.434817 182.791642,25.2179104 L180.346269,39.3552239 C180.193432,40.2722434 179.862291,40.9217891 179.352836,41.3038806 C178.843381,41.6859721 178.155626,41.8770149 177.289552,41.8770149 C176.525369,41.8770149 175.481002,41.6987083 174.156418,41.3420896 C172.831834,40.9854709 171.07424,40.8071642 168.883582,40.8071642 C164.960776,40.8071642 161.598422,41.8897404 158.796418,44.0549254 C155.994414,46.2201103 153.625482,49.3914219 151.689552,53.5689552 L151.689552,102.4 L132.814328,102.4 Z M223.063881,123.949851 C222.50348,125.274434 221.777517,126.280594 220.88597,126.968358 C219.994423,127.656123 218.631651,128 216.797612,128 L202.736716,128 L217.408955,96.5922388 L185.695522,23.9952239 L202.201791,23.9952239 C203.730157,23.9952239 204.901886,24.3518372 205.717015,25.0650746 C206.532143,25.778312 207.143481,26.5934283 207.551045,27.5104478 L224.286567,68.1647761 C224.846968,69.4893599 225.330943,70.8648685 225.738507,72.2913433 C226.146072,73.7178181 226.502685,75.1442715 226.808358,76.5707463 C227.215922,75.0933259 227.661689,73.6668725 228.145672,72.2913433 C228.629654,70.915814 229.151838,69.514833 229.712239,68.0883582 L245.454328,27.5104478 C245.861893,26.4915372 246.536911,25.6509486 247.479403,24.9886567 C248.421895,24.3263648 249.478999,23.9952239 250.650746,23.9952239 L265.781493,23.9952239 L223.063881,123.949851 Z M316.064478,102.4 L298.946866,102.4 L267.768358,23.9952239 L283.43403,23.9952239 C284.809559,23.9952239 285.968553,24.3263648 286.911045,24.9886567 C287.853537,25.6509486 288.503083,26.4915372 288.859701,27.5104478 L303.990448,69.3874627 C304.856522,71.832848 305.582485,74.227252 306.168358,76.5707463 C306.754232,78.9142406 307.276416,81.2576997 307.734925,83.601194 C308.193435,81.2576997 308.715619,78.9142406 309.301493,76.5707463 C309.887366,74.227252 310.638801,71.832848 311.555821,69.3874627 L327.068657,27.5104478 C327.425275,26.4915372 328.062085,25.6509486 328.979104,24.9886567 C329.896124,24.3263648 330.991436,23.9952239 332.265075,23.9952239 L347.166567,23.9952239 L316.064478,102.4 Z M388.202985,22.7725373 C393.144701,22.7725373 397.691522,23.5621812 401.843582,25.1414925 C405.995643,26.7208039 409.574512,29.0260545 412.580299,32.0573134 C415.586085,35.0885724 417.929544,38.8075402 419.610746,43.2143284 C421.291949,47.6211166 422.132537,52.651912 422.132537,58.3068657 C422.132537,59.7333405 422.068856,60.9178062 421.941493,61.8602985 C421.814129,62.8027908 421.584877,63.5414899 421.253731,64.0764179 C420.922585,64.611346 420.476819,64.9934317 419.916418,65.2226866 C419.356017,65.4519414 418.64279,65.5665672 417.776716,65.5665672 L369.327761,65.5665672 C369.888162,73.6159606 372.053314,79.5255533 375.823284,83.2955224 C379.593253,87.0654915 384.58584,88.9504478 390.801194,88.9504478 C393.857926,88.9504478 396.494317,88.5938344 398.710448,87.880597 C400.926578,87.1673596 402.862479,86.3777158 404.518209,85.5116418 C406.173939,84.6455678 407.625864,83.855924 408.87403,83.1426866 C410.122195,82.4294492 411.332133,82.0728358 412.503881,82.0728358 C413.268064,82.0728358 413.930345,82.2256701 414.490746,82.5313433 C415.051147,82.8370165 415.535122,83.2700469 415.942687,83.8304478 L421.444776,90.7080597 C419.356009,93.1534451 417.01255,95.2039718 414.414328,96.8597015 C411.816106,98.5154312 409.103298,99.839995 406.275821,100.833433 C403.448344,101.826871 400.569965,102.527361 397.640597,102.934925 C394.711229,103.34249 391.871059,103.546269 389.12,103.546269 C383.668828,103.546269 378.599824,102.641999 373.912836,100.833433 C369.225847,99.0248666 365.150266,96.3502665 361.68597,92.8095522 C358.221674,89.268838 355.496129,84.8875883 353.509254,79.6656716 C351.522378,74.443755 350.528955,68.3940642 350.528955,61.5164179 C350.528955,56.1671374 351.395016,51.136342 353.127164,46.4238806 C354.859312,41.7114192 357.342869,37.6103657 360.57791,34.120597 C363.812951,30.6308283 367.761171,27.8670749 372.422687,25.8292537 C377.084202,23.7914326 382.344249,22.7725373 388.202985,22.7725373 Z M388.585075,36.2985075 C383.082958,36.2985075 378.778125,37.8523228 375.670448,40.96 C372.562771,44.0676772 370.575925,48.4743993 369.709851,54.1802985 L405.167761,54.1802985 C405.167761,51.7349131 404.83662,49.4296626 404.174328,47.2644776 C403.512036,45.0992927 402.493141,43.2016002 401.117612,41.5713433 C399.742083,39.9410864 398.009961,38.6547311 395.921194,37.7122388 C393.832427,36.7697465 391.387079,36.2985075 388.585075,36.2985075 Z" id="stryve"></path>
                </g>
                <g id="logo/logo" transform="translate(0.000000, 8.000000)">
                    <g id="logo">
                        <path d="M96,64 L96,80 C96,88.836556 88.836556,96 80,96 L64,96 L32,96 L32,64 L64,64 L64,32 L96,32 L96,64 Z" id="Combined-Shape" fill="#6056FF"></path>
                        <path d="M68,0 L92,0 C94.209139,-4.05812251e-16 96,1.790861 96,4 L96,32 L64,32 L64,4 C64,1.790861 65.790861,4.05812251e-16 68,0 Z M36,32 L64,32 L64,64 L32,64 L32,36 C32,33.790861 33.790861,32 36,32 Z M4,64 L32,64 L32,96 L4,96 C1.790861,96 2.705415e-16,94.209139 0,92 L0,68 C-2.705415e-16,65.790861 1.790861,64 4,64 Z" id="Combined-Shape" fill="#B9B7F4"></path>
                    </g>
                </g>
            </g>
        </g>
    </g>
</svg>