<svg xmlns="http://www.w3.org/2000/svg" viewBox="0 0 67.18 31.13"><defs><style>.cls-1{fill:#5b45dd;}.cls-2{fill:#fff;}</style></defs><title>Asset 3</title><g id="Layer_2" data-name="Layer 2"><g id="Layer_1-2" data-name="Layer 1"><rect class="cls-1" width="67.18" height="31.13" rx="14.68" ry="14.68"/><path class="cls-2" d="M41.54,6.82H25.77a3.09,3.09,0,0,0-1.83,5.58v9.29a2.5,2.5,0,0,0,2.5,2.5H40.87a2.5,2.5,0,0,0,2.5-2.5V12.39a3.09,3.09,0,0,0-1.83-5.58ZM36,11.48l-.33.18v10a1.22,1.22,0,0,1-1.21,1.21h-8a1.22,1.22,0,0,1-1.21-1.21v-10l-.33-.18a1.8,1.8,0,0,1,.87-3.38h9.37A1.8,1.8,0,0,1,36,11.48Zm6.53-.08h-3v1.29h2.54v9a1.22,1.22,0,0,1-1.21,1.21H36.66A2.49,2.49,0,0,0,37,21.69V12.39a3.09,3.09,0,0,0,.68-4.29h3.89a1.8,1.8,0,0,1,1,3.3Z"/><circle class="cls-2" cx="29.27" cy="10.65" r="0.64"/><circle class="cls-2" cx="32.79" cy="14.97" r="0.64"/><circle class="cls-2" cx="33.44" cy="21.08" r="0.64"/><circle class="cls-2" cx="27.44" cy="12.71" r="0.64"/><circle class="cls-2" cx="26.8" cy="10.01" r="0.64"/></g></g></svg>