<svg width="1000" height="1000" viewBox="0 0 1000 1000" version="1.1" xmlns="http://www.w3.org/2000/svg" xmlns:xlink="http://www.w3.org/1999/xlink">
<title>coding_icon</title>
<desc>Created using Figma</desc>
<g id="Canvas" transform="translate(235 19)">
<clipPath id="clip-0" clip-rule="evenodd">
<path d="M -235 -19L 765 -19L 765 981L -235 981L -235 -19Z" fill="#FFFFFF"/>
</clipPath>
<g id="coding_icon" clip-path="url(#clip-0)">
<path d="M -235 -19L 765 -19L 765 981L -235 981L -235 -19Z" fill="#FFFFFF"/>
<g id="&#60;/&#62;">
<use xlink:href="#path0_fill" transform="translate(-108.808 271.101)" fill="#2F283C"/>
<use xlink:href="#path1_fill" transform="translate(-108.808 271.101)" fill="#2F283C"/>
<use xlink:href="#path2_fill" transform="translate(-108.808 271.101)" fill="#2F283C"/>
</g>
</g>
</g>
<defs>
<path id="path0_fill" d="M 0 202.332L 210.297 92.6689L 210.297 139.402C 210.297 142.942 209.412 146.217 207.642 149.226C 205.872 152.058 202.951 154.537 198.88 156.661L 102.493 206.049C 98.422 208.173 94.0851 210.032 89.4826 211.625C 85.0571 213.041 80.2777 214.369 75.1441 215.608C 80.2777 216.847 85.0571 218.263 89.4826 219.856C 94.0851 221.273 98.422 223.043 102.493 225.167L 198.88 274.82C 202.951 276.945 205.872 279.511 207.642 282.521C 209.412 285.353 210.297 288.539 210.297 292.08L 210.297 338.812L 0 228.884L 0 202.332Z"/>
<path id="path1_fill" d="M 329.029 395.37C 327.436 399.441 325.401 402.981 322.922 405.991C 320.444 409 317.612 411.478 314.425 413.426C 311.239 415.55 307.876 417.143 304.335 418.205C 300.795 419.267 297.343 419.798 293.98 419.798L 266.365 419.798L 421.433 23.1008C 424.442 15.6661 428.779 10.0015 434.444 6.10713C 440.108 2.03571 446.923 0 454.889 0L 482.77 0L 329.029 395.37Z"/>
<path id="path2_fill" d="M 537.319 338.812L 537.319 292.08C 537.319 288.539 538.204 285.353 539.974 282.521C 541.744 279.511 544.665 276.945 548.736 274.82L 645.123 225.167C 652.912 221.273 662.028 218.086 672.472 215.608C 667.339 214.369 662.47 213.041 657.868 211.625C 653.443 210.032 649.194 208.173 645.123 206.049L 548.736 156.661C 544.665 154.537 541.744 152.058 539.974 149.226C 538.204 146.217 537.319 142.942 537.319 139.402L 537.319 92.6689L 747.616 202.332L 747.616 228.884L 537.319 338.812Z"/>
</defs>
</svg>
