<svg id="Layer_1" data-name="Layer 1" xmlns="http://www.w3.org/2000/svg" viewBox="0 0 298 242.19"><defs><style>.cls-1{fill:#c6cacd;}</style></defs><title>logo3</title><path class="cls-1" d="M94.72,243.18c112.46,0,174-93.17,174-174q0-4-.17-7.9A124.34,124.34,0,0,0,299,29.66a121.92,121.92,0,0,1-35.11,9.63A61.36,61.36,0,0,0,290.78,5.47,122.62,122.62,0,0,1,252,20.31,61.19,61.19,0,0,0,147.77,76.06a173.61,173.61,0,0,1-126-63.88A61.19,61.19,0,0,0,40.67,93.81,60.68,60.68,0,0,1,13,86.16c0,.26,0,.51,0,.78A61.16,61.16,0,0,0,62,146.87a61,61,0,0,1-27.61,1,61.2,61.2,0,0,0,57.11,42.47,122.65,122.65,0,0,1-75.94,26.17A124.18,124.18,0,0,1,1,215.71a173.07,173.07,0,0,0,93.72,27.46" transform="translate(-1 -0.99)"/></svg>