<svg id="svg23413" xmlns="http://www.w3.org/2000/svg" viewBox="0 0 797.24 67.56"><defs><style>.cls-1{fill:#c6cacd;}</style></defs><title>logo4</title><g id="layer1"><path id="path13406" class="cls-1" d="M793,58.28a4.55,4.55,0,1,0,4.25,4.54A4.36,4.36,0,0,0,793,58.28M639.13,67.07h19.52V65.33l-2.12-.48c-1.93-.48-2.8-1.55-2.8-4.25V34.31h4.54c2.8,0,4.25.68,4.45,6.57l.48,12.37c.39,11.11,3.58,14.21,9,14.21s7-3.77,7-9.09V56.15h-2v1.64c0,3.58-.48,6.09-1.84,6.09s-1.35-1-1.64-5.41l-.58-8.5c-.77-11.41-2.22-15.37-10.63-16.91,8-2.13,13-8,13-16.43,0-10.92-8.6-16.14-16.82-16.14h-33V2.22l1.84.39C630.91,3.38,631,5.22,631,13V51.51c0,8.6-2.42,12.76-7.93,12.76-4.93,0-7.63-2.42-7.63-11.79V6.77c0-2.71.87-3.48,3-4l2.61-.58V.48h-20.2V2.22L603,2.8c1.93.58,2.61,1.35,2.61,4.06V51.8c0,10.15,5.9,15.75,14.89,15.75s13.43-5.61,13.43-16V9.57c0-5.22,1.07-7.05,5.32-7.05,3.38,0,4.84,1.16,4.84,4.35V60.6c0,2.71-.87,3.67-2.8,4.16l-2.13.58v1.74ZM768.83,6.86c0-2.71.87-3.58,2.8-4l2.61-.58V.48h-20.1V2.22l2.13.58c1.93.58,2.8,1.35,2.8,4.06V61C759.07,63.59,758,65,755,65c-3.48,0-4-1.16-5.22-6.86L737.42.29h-3.87L721.76,56.34c-1.35,6.28-2,7.73-4.64,8.51l-1.64.48v1.74H729.3V65.33l-2-.39c-2.9-.58-3.67-2.12-2.22-9.47l7-35.86,7.63,38c1.16,5.51,1.07,6.57-3.09,7.34l-2,.39v1.74h51.22V45h-1.84c-1,10.15-3,19.72-11.21,19.72h-3.87V6.86ZM738.68,49.1V46.49h-13l-.39,2.61ZM684.75,8v46.2c0,7,0,10.24-3.48,10.83l-1.74.29v1.74h14.21V65.33c-6.18-.87-6.18-3-6.18-10.53V10.92l-2.32-2.13,23.68,58.28H713V13.34c0-7.92,0-9.66,3.87-10.73l1.35-.39V.48H703.59V2.22l1.64.39c4.93.87,4.93,2.8,4.93,10.15V46.39l1-.29L693.16.48H679.33V2.22l1.35.39c1.55.48,2.42,2.22,4.06,5.41m-31-5.22h3.87c3.86,0,7.44,2.51,7.44,15.08C665,30.73,662.33,32,656.91,32h-3.19ZM589.36,33.15C589.36,61.08,587,65,582,65s-7.25-4-7.25-31.7c0-26.87,2.42-30.73,7.25-30.73,5,0,7.35,3.87,7.35,30.54m10.53.58C599.89,15.27,594,0,582,0s-17.78,15.27-17.78,33.73,5.9,33.83,17.78,33.83c12.28,0,17.88-15.27,17.88-33.83M558.53,6.86c0-2.71.68-3.58,2.61-4.06l2.13-.58V.48h-20V2.22l2.41.58c1.93.48,3,1.16,3,4V53.25c0,6.47-.58,11.69-5.41,11.69-3.09,0-5.41-2.42-5.32-4.16.29-3,5.32-2.8,5.7-7.64.29-3.48-1.93-4.93-4-5.22-3-.39-6.67,2.13-6.77,7.15-.1,6.47,4.16,12.37,11.41,12.37,8,0,14.21-5.41,14.21-15.76V6.86Zm-322.8,0c0-2.71.87-3.58,2.8-4l2.61-.58V.48H221V2.22l2.13.58c1.93.58,2.8,1.35,2.8,4.06V61c0,2.61-1.06,4.06-4.06,4.06-3.48,0-4.06-1.16-5.32-6.86L204.22.29h-3.86L188.56,56.34c-1.35,6.28-2,7.73-4.64,8.51l-1.64.48v1.74H196.1V65.33l-2-.39c-2.9-.58-3.67-2.12-2.22-9.47l7-36,7.64,38.18c1.06,5.51,1.06,6.57-3.09,7.34l-2,.39v1.74h51.32V45H250.8c-1,10.15-3,19.72-11.21,19.72h-3.87ZM504.79,2.8h2.13c6,0,8,9.57,8.7,19.72h1.84V.48H482.37v22h1.84c.68-10.15,2.71-19.72,8.7-19.72H495V60.6c0,2.71-.87,3.67-2.8,4.16l-2.51.58v1.74h20.88V65.33l-3-.68c-1.84-.48-2.8-1.06-2.8-4.06V2.8ZM460.62,33.63l3,.1c4.35.1,5.6,1.74,6.48,12.28h1.84V19.14h-1.84c-1.07,8.41-2.22,12-6.38,12.08l-3.09.1V2.8h6.67c7.44,0,9.09,9.37,10.15,19.72h1.84V.48H445.93V2.22l2.13.58c2.22.58,2.8,1.93,2.8,4.16V60.6c0,2.71-.87,3.67-2.8,4.16l-2.13.58v1.74h34.31V45H478.4c-1.16,10.05-2.42,19.72-11.11,19.72h-6.67V33.63Zm-36.44,0,3,.1c4.35.1,5.61,1.74,6.48,12.28h1.84V19.14h-1.84c-1.06,8.41-2.22,12-6.38,12.08l-3.09.1V2.8h6.67c7.44,0,9.08,9.57,10.15,19.72h1.84V.48H408.53V2.22l3.09.58c2.22.58,2.8,1.93,2.8,4.16V60.6c0,2.71-.87,3.67-2.8,4.16l-2.13.58v1.74H443.8V45H442c-1.16,10.05-2.42,19.72-11.11,19.72h-6.67V33.63ZM384.46,2.8h2.9c3.86,0,7.44,2.51,7.44,15.08S392.1,32,386.69,32h-2.22ZM369.87,67.07h19.52V65.33l-2.13-.48c-1.93-.48-2.8-1.55-2.8-4.25V34.31H388c2.8,0,4.25,1.16,4.45,6.57L393,53.25c.39,11.11,3.58,14.21,9,14.21s7-3.77,7-9.09V56.15h-2v1.64c0,3.58-.48,6.09-1.84,6.09s-1.35-1-1.64-5.41l-.58-8.5c-.77-11.7-2.32-15.37-10.63-16.91,8-2.13,13-8,13-16.43,0-10.92-8.6-16.14-16.82-16.14H369.87V2.22L372,2.8c1.93.58,2.8,1.35,2.8,4.06V60.6c0,2.71-.87,3.67-2.8,4.16l-2.13.58v1.74ZM355.08,2.8h2.13c6,0,8,9.57,8.7,19.72h1.83V.48H332.66v22h1.84c.68-10.15,2.71-19.72,8.7-19.72h2.13V60.6c0,2.71-.87,3.67-2.8,4.16l-2.51.58v1.74H360.4V65.33l-2.51-.58c-2.51-.58-2.8-2.51-2.8-4.16Zm-22.33,47c0-19.81-21.74-25-21.74-39.43,0-3.09,1.16-7.73,6-7.73,7,0,9.57,9,10.73,19.91h1.84V.48h-1.16c-.48,2.13-1.35,3.09-2.61,3.09-2.22,0-3.38-3.48-8.7-3.48C308.89.1,303.28,7,303.28,15.95c0,16.33,21.75,23.2,21.75,38.27,0,6.86-3.19,10.73-7.54,10.73-6.48,0-10.73-7.63-11.89-19.91h-1.84v22h1.16c1-3.19,2.22-3.48,3.29-3.48,1.84,0,3.77,3.87,9.38,3.87,8.6,0,15.17-7.44,15.17-17.69M269.45,6.86c0-2.71.87-3.58,2.8-4l2.61-.58V.48h-20.1V2.22l2.13.58c1.93.58,2.8,1.35,2.8,4.06V60.6c0,2.71-.87,3.67-2.8,4.16l-2.13.58v1.74h31.6V45h-1.84c-1,10.15-3,19.72-11.21,19.72h-3.87Zm-64,42.23V46.49h-13L192,49.1h13.43ZM149.61,67.27h4l9-47.55h-1.35l9.86,47.55h3.48l11.79-56.05c1.26-5.9,1.93-7.92,4.25-8.51l1.84-.48V.48H178.8V2.22l2,.39c2.9.58,3.57,2.32,2.22,9.47l-7.63,37.6h1.16l-7.73-39.62c-.77-3.77-1.26-6.86,1.93-7.44l2.13-.39V.48H154.25V2.22l1.26.29c1.93.48,2.22,1.64,3,5.32l3,14.4-.58-8.7-6.67,35.18h.87l-7.83-38.66c-.87-4-1.16-7,1.93-7.54l1.45-.29V.48h-19V2.22l1.84.48c1.74.48,2.71,1.35,3.87,6.67l12.27,57.89ZM98,33.63l3,.1c4.35.1,5.6,1.74,6.48,12.28h1.84V19.14h-1.84c-1.06,8.41-2.22,12-6.38,12.08l-3.09.1V2.8h6.67c7.44,0,9.09,9.57,10.15,19.72h1.84V.48H83.31V2.22l2.13.58c2.22.58,2.8,1.93,2.8,4.16V60.6c0,2.71-.87,3.67-2.8,4.16l-2.13.58v1.74h34.31V45h-1.84c-1.16,10.05-2.41,19.72-11.11,19.72H98V33.63ZM37.21,67.07H57V65.33l-2.22-.48c-1.74-.39-2.9-1.55-2.9-4.25V34.21H66.49V60.6c0,2.71-1.16,3.87-2.9,4.25l-2.22.48v1.74H81.18V65.33l-2.13-.58c-1.93-.48-2.8-1.55-2.8-4.25V6.86c0-2.71.87-3.58,2.8-4.06l2.13-.58V.48H61.37V2.22l2.22.58c1.64.48,2.9,1.16,2.9,4V31.6H51.9V6.76c0-2.71,1.06-3.48,2.9-4L57,2.22V.48H37.21V2.22l2.13.58c1.93.58,2.8,1.35,2.8,4.06V60.6c0,2.71-.87,3.67-2.8,4.16l-2.13.58v1.74ZM22.42,2.8h2.13c6,0,8,9.57,8.7,19.72h1.84V.48H0v22H1.84C2.51,12.37,4.54,2.8,10.53,2.8h2.13V60.6c0,2.71-.87,3.67-2.8,4.16l-2.51.58v1.74H28.22V65.33l-3-.68c-1.84-.48-2.8-1.06-2.8-4.06V2.8Z" transform="translate(0)"/></g></svg>