<svg id="svg3696" xmlns="http://www.w3.org/2000/svg" viewBox="0 0 139.1 18.31"><defs><style>.cls-1{fill:#c2cacd;}</style></defs><title>logo1</title><g id="layer1"><path id="path3698" class="cls-1" d="M10.44,1.88C10.44.38,9,0,7.87,0V.24c.7,0,1.24.25,1.24.72s-.23.74-.94.74a10.6,10.6,0,0,1-2.5-.61A9,9,0,0,0,3.06.45,2.5,2.5,0,0,0,.47,2.9,1.72,1.72,0,0,0,1.64,4.54l.11-.18a.79.79,0,0,1-.43-.74.94.94,0,0,1,1-.85,12.14,12.14,0,0,1,2.77.65,22.52,22.52,0,0,0,2.77.63V6.39l-1.15,1v.09l1.15,1v3.22A3.75,3.75,0,0,1,6,12.1a3.77,3.77,0,0,1-3-1.21L6.16,9.4V4.23L2.36,5.93a4.5,4.5,0,0,1,2-2.16L4.3,3.59A5.71,5.71,0,0,0,0,8.82a5.31,5.31,0,0,0,5.31,5.33,4.84,4.84,0,0,0,5-4.93l-.18,0a5.23,5.23,0,0,1-1.94,2.38V8.45l1.22-1,0-.11-1.21-1V4.06a2.18,2.18,0,0,0,2.29-2.18ZM3.87,10.25,3,10.7a4.57,4.57,0,0,1-.86-2.88A5.26,5.26,0,0,1,2.3,6.2l1.58-.7Zm8,1.67-1,.76.13.14.49-.34L13.18,14l2.27-1.51-.11-.16-.59.38L14,12V6.81l.61-.45,1.3,1V12c0,2.86-.63,3.33-1.93,3.8V16c2.14.09,4.07-.63,4.07-4.3V6.75l.68-.54-.13-.16L18,6.52l-1.85-1.6L14,6.54V.31h-.16l-2.68,1.8v.16a1.08,1.08,0,0,1,.72,1.17Zm13.82-.81-1.85,1.44L21.92,11v-.9l3.58-2.39V7.64L23.72,4.9,19.82,7v5l-.77.59.13.16.7-.56L22.43,14l3.42-2.7ZM21.92,9.87V6.16L22,6.07l1.66,2.61ZM40.18,1.19A2.12,2.12,0,0,0,40,.49h-.18c-.23.63-.52,1-1.26,1A2,2,0,0,1,37.17.78S35,3.28,35,3.28l.18.16.61-.7a2.54,2.54,0,0,0,1.85.72v6.3L33.23,2.09a2.4,2.4,0,0,0-2-1.44,2.3,2.3,0,0,0-2.14,2.75h.22c.05-.47.29-1,.81-1a1.32,1.32,0,0,1,1,.76V5.66c-1.37,0-2.27.63-2.27,1.75A1.68,1.68,0,0,0,30.1,9.13l0-.16a.69.69,0,0,1-.25-.52c0-.41.31-.68.86-.68a2.37,2.37,0,0,1,.4,0V11c-1.6,0-2.84.9-2.84,2.41a2.16,2.16,0,0,0,2.54,2.05l0-.18c-.81-.09-1.24-.47-1.24-1a1,1,0,0,1,1.06-1,2.13,2.13,0,0,1,1.53.81l2.18-2.43-.18-.16-.56.63A3.73,3.73,0,0,0,31.37,11V3.42l6.1,10.64h.43V3.46a2.33,2.33,0,0,0,2.27-2.27Zm5.45,9.92-1.85,1.44L41.85,11v-.9l3.58-2.39V7.64L43.65,4.9,39.74,7v5l-.77.59.13.16.7-.56L42.35,14l3.42-2.7-.14-.2ZM41.85,9.87V6.16L42,6.07l1.66,2.61ZM58,5.73l-.56.41L56,4.92,54.34,6.43l.68.65v5.71l-1.84-1.17V7l.59-.41L52,4.92,50.38,6.43l.68.65V12.5l-.23.14-1.6-1.13V7c0-1-.5-1.35-1.17-1.76s-.81-.63-.81-1.15.43-.68.65-.81a.71.71,0,0,1,0-.18,2.35,2.35,0,0,0-2.21,2.07,1.72,1.72,0,0,0,.72,1.44,1.74,1.74,0,0,1,.72,1.33v4.37l-.81.63.13.16.74-.58,2,1.57L51,12.77,53.14,14l4-2.34V6.63l1-.72L58,5.73ZM72,1.57l-.76.68L69.59.78,67.12,2.61V.89h-.25l.05,12.26c-.25,0-.88-.18-1.46-.27L65.41,2.63A1.79,1.79,0,0,0,63.52.83,2.2,2.2,0,0,0,61.23,3h.22c.07-.45.31-.85.76-.85s.86.29.86,1.3v3c-1.39.05-2.18.83-2.18,1.78a1.39,1.39,0,0,0,1.24,1.55l0-.18a.55.55,0,0,1-.4-.52c0-.43.41-.61,1-.61H63v4.68a2.16,2.16,0,0,0-1.6,2.11,2.28,2.28,0,0,0,2.48,2.21,12.65,12.65,0,0,0,2.9-.4A14.38,14.38,0,0,1,69,16.64c.58,0,.83.27.83.68a.72.72,0,0,1-.54.81l0,.18a2.09,2.09,0,0,0,2-2.09c0-1.15-1.1-1.84-2.32-1.84a15.75,15.75,0,0,0-2.81.41,14.57,14.57,0,0,1-2.43.34c-.52,0-1.17-.25-1.17-1s.52-1.13,1.82-1.13a10.78,10.78,0,0,1,2.36.31,12.6,12.6,0,0,0,2.52.45c1.1,0,2.09-.4,2.09-2V2.49l.88-.76Zm-3.1,4.66a1.27,1.27,0,0,1-.9.43,1.38,1.38,0,0,1-.92-.43V2.87l.77-.52,1,1Zm0,2.25A1.31,1.31,0,0,0,68,8.1a1.5,1.5,0,0,0-.92.38v-2a1.51,1.51,0,0,0,.92.4,1.32,1.32,0,0,0,.9-.4Zm0,3.53a1.16,1.16,0,0,1-1.21,1.21c-.13,0-.49,0-.61,0V8.75A1.41,1.41,0,0,1,68,8.34a1.37,1.37,0,0,1,.9.41ZM79.27,6.65,76.82,4.9,73.15,7v4.93l-.76.61.11.16.59-.49L75.53,14l3.74-2.29Zm-4,4.77V6l1.91,1.37v5.4ZM86.49,5.1s-.14,0-.14,0a1.08,1.08,0,0,1-.67.31A1.19,1.19,0,0,1,84.83,5h-.14l-1.28,1.4L82.1,5,79.86,6.54l.11.18.59-.4.77.83v4.77l-1,.76.13.14.49-.34L82.76,14l2.36-1.57L85,12.3l-.67.4-.88-.79V6.59a2,2,0,0,0,1.35.77c1,0,1.57-1.11,1.67-2.27Zm9.09,7.25L93,14,89.51,8.77,92,4.94l.16,0a2,2,0,0,0,1.26.59,1.32,1.32,0,0,0,1.1-.59s.14,0,.14,0a2.31,2.31,0,0,1-1.89,2.39,2.63,2.63,0,0,1-1.58-.61L90.93,7l3.78,5.6.76-.47Zm-8.32-.43-1,.76.13.14.49-.34L88.56,14l2.27-1.51-.13-.16-.58.38L89.39,12V.31h-.16L86.49,2.13v.16a1.06,1.06,0,0,1,.77,1.15Zm20.86-10c0-1.49-1.4-1.93-2.57-1.87V.24c.7,0,1.24.25,1.24.72s-.23.74-.94.74a10.6,10.6,0,0,1-2.5-.61,9,9,0,0,0-2.61-.63A2.5,2.5,0,0,0,98.15,2.9a1.72,1.72,0,0,0,1.17,1.64l.11-.18A.79.79,0,0,1,99,3.62a.94.94,0,0,1,1-.85,12.14,12.14,0,0,1,2.77.65,22.52,22.52,0,0,0,2.77.63V6.39l-1.15,1v.09l1.15,1v3.22a4.26,4.26,0,0,1-4.84-.77l3.1-1.49V4.23L100,5.93a4.51,4.51,0,0,1,2-2.16L102,3.59a5.71,5.71,0,0,0-4.3,5.24A5.31,5.31,0,0,0,103,14.15a4.84,4.84,0,0,0,5-4.93l-.18,0a5.23,5.23,0,0,1-1.94,2.38V8.45l1.22-1,0-.11-1.21-1V4.06a2.18,2.18,0,0,0,2.29-2.18Zm-6.57,8.37-.92.45a4.57,4.57,0,0,1-.86-2.88A5.26,5.26,0,0,1,100,6.2l1.58-.7,0,4.75Zm9.16-9.07-.11,0L109.1,2.43v.11L110.37,4h.13L112,2.72l0-.09-1.28-1.46ZM113,12.35l-.58.38-.74-.74V6.77l.72-.54-.14-.18-.56.43-1.31-1.57-2.16,1.51.13.2.54-.36.67.83V12l-1,.74.11.14.5-.36L110.88,14l2.27-1.51Zm12.6-.09-.54.36-.81-.74V6.75l.77-.58L124.92,6l-.67.5-1.73-1.6L120.29,6.5l-1.71-1.58-2.2,1.57L115,4.92l-2.16,1.51.11.2.54-.36.74.81V12l-.59.59L115.4,14l1.67-1.51-.68-.65V6.75l.65-.43L118.2,7.4V12l-.58.59L119.37,14,121,12.51l-.68-.65V6.72l.58-.38,1.24,1.06v4.5l-.5.52,1.76,1.6,2.32-1.58Zm6.57-1.15-1.85,1.44L128.41,11v-.9L132,7.75V7.64L130.21,4.9,126.3,7v5.13L128.91,14l3.42-2.7Zm-3.78-1.24V6.16l.13-.09,1.66,2.61Zm10.69-.71-1.46-1.1A3.84,3.84,0,0,0,139,5.31c0-.11,0-.31,0-.49h-.18a1,1,0,0,1-1,.74,1.81,1.81,0,0,1-1.35-.72L133,6.7V9.45l1.26,1c-1.28,1.13-1.51,1.93-1.51,2.5a1.53,1.53,0,0,0,1,1.55l.09-.16a.64.64,0,0,1-.31-.58c0-.25.31-.61.88-.61a1.88,1.88,0,0,1,1.42.77s3.28-2,3.28-2Zm-.81-2.27A9.3,9.3,0,0,1,136,9.18l-.83-.65V5.85a2.28,2.28,0,0,0,2,1.33A2.26,2.26,0,0,0,138.29,6.89Zm-1.33,6a2.47,2.47,0,0,0-2.16-1.46,2.66,2.66,0,0,0-1.42.36A8.43,8.43,0,0,1,136,9.38l.94.72Z" transform="translate(0 0)"/></g></svg>