<svg id="Layer_1" data-name="Layer 1" xmlns="http://www.w3.org/2000/svg" viewBox="0 0 161.14 45.43"><defs><style>.cls-1{fill:#c6cacc;fill-rule:evenodd;}</style></defs><title>logo2</title><path class="cls-1" d="M254.8,439.42V415.3c0-3.38-2.23-5.47-6.26-5.47s-6.26,2.45-6.26,5.54v24h-6.34V415.3c0-3.38-2.09-5.47-6.19-5.47s-6.34,2.45-6.34,5.54v24h-6.19V405h5.54l.22,3.24c2.09-2.52,4.32-4,8.86-4a9.64,9.64,0,0,1,8.28,4.54c2-2.59,5.18-4.54,10.44-4.54A10.06,10.06,0,0,1,261,414.72v24.7Z" transform="translate(-217.22 -395.21)"/><path class="cls-1" d="M294.18,418.9l-4.61,4.82h-16.2c.14,4.89,3.31,10.94,10.15,10.94a13.35,13.35,0,0,0,9.22-3.38L291.38,438a15.89,15.89,0,0,1-8.71,2.16c-8.57,0-15.77-7.2-15.77-17.93,0-11.38,7.42-18,14.62-18,8.14,0,12.74,6.55,12.74,13a12.71,12.71,0,0,1-.07,1.66Zm-12.46-9.22c-3.67,0-7.27,4-8.06,8.86h14.18a3.17,3.17,0,0,0,.14-1.15c0-3.6-2.45-7.7-6.26-7.7Z" transform="translate(-217.22 -395.21)"/><path class="cls-1" d="M318.59,410.11h-9.43v20a4.14,4.14,0,0,0,4.39,4.32,7.22,7.22,0,0,0,3.24-.65l-1,5.62a8.17,8.17,0,0,1-3,.43c-5.47,0-9.79-3.46-9.79-9.79V410.11h-5.76V405H303v-6.48l6.19-3.31V405h10.3l-.86,5.11Z" transform="translate(-217.22 -395.21)"/><path class="cls-1" d="M340.84,410c-4.9,0-10.37,3.31-10.37,11.88v17.5h-6.34V405h6l.22,5.18c1.58-4,5.54-5.62,10.15-5.62l1,5.47Z" transform="translate(-217.22 -395.21)"/><path class="cls-1" d="M359.63,440.64a18.76,18.76,0,1,1,18.72-18.72,18.61,18.61,0,0,1-18.72,18.72Zm5.18-34a28.9,28.9,0,0,1,2.52,4.68,16.37,16.37,0,0,0,3-1.58,15.86,15.86,0,0,0-5.47-3.1Zm7,4.61a26.82,26.82,0,0,1-3.82,2,30.05,30.05,0,0,1,1.8,7.56h5.83a15.82,15.82,0,0,0-3.82-9.58ZM361.86,406a4,4,0,0,0-1.22-.22v7.42a21.51,21.51,0,0,0,4.75-1,27.22,27.22,0,0,0-3.53-6.19Zm4.25,8a18,18,0,0,1-5.47,1.37v5.47h7a23.37,23.37,0,0,0-1.51-6.84Zm-7.56-8.21a4,4,0,0,0-1.22.22,27.22,27.22,0,0,0-3.53,6.19,22.42,22.42,0,0,0,4.75,1v-7.42Zm11.23,17.14a25.38,25.38,0,0,1-1.8,7.56,36.9,36.9,0,0,1,3.82,2,15.65,15.65,0,0,0,3.82-9.58ZM348.9,409.75a16.38,16.38,0,0,0,3,1.58,24.45,24.45,0,0,1,2.59-4.68,15.54,15.54,0,0,0-5.54,3.1Zm11.74,13.18v5.47a20.38,20.38,0,0,1,5.47,1.37,24.4,24.4,0,0,0,1.51-6.84Zm-2.09-7.56a18,18,0,0,1-5.47-1.37,23.37,23.37,0,0,0-1.51,6.84h7v-5.47Zm8.71,17a21.12,21.12,0,0,1-2.45,4.75,14.76,14.76,0,0,0,5.47-3.1,19.65,19.65,0,0,0-3-1.66Zm-19.8-21.1a15.47,15.47,0,0,0-3.89,9.58h5.83a30.05,30.05,0,0,1,1.8-7.56,22.52,22.52,0,0,1-3.74-2Zm13.18,19.3V438a8,8,0,0,0,1.22-.14,31.23,31.23,0,0,0,3.53-6.26,22.32,22.32,0,0,0-4.75-1Zm-2.09-7.63h-7a24.4,24.4,0,0,0,1.51,6.84,20.38,20.38,0,0,1,5.47-1.37v-5.47Zm0,7.63a24.35,24.35,0,0,0-4.75,1,31.23,31.23,0,0,0,3.53,6.26,8,8,0,0,0,1.22.14v-7.42Zm-6.62,1.8a23.79,23.79,0,0,0-3,1.66,14.5,14.5,0,0,0,5.54,3.1,21.38,21.38,0,0,1-2.52-4.75Zm-2.52-9.43h-5.83a15.31,15.31,0,0,0,3.89,9.58,29.43,29.43,0,0,1,3.74-2,25.38,25.38,0,0,1-1.8-7.56Z" transform="translate(-217.22 -395.21)"/><path class="cls-1" d="M376.62,400a1.69,1.69,0,1,1,1.73-1.66,1.69,1.69,0,0,1-1.73,1.66Zm0-3.1a1.4,1.4,0,0,0-1.44,1.44,1.44,1.44,0,0,0,2.88,0,1.4,1.4,0,0,0-1.44-1.44Zm0,.65h-.29v.65h.29a.33.33,0,0,0,.36-.29.34.34,0,0,0-.36-.36Zm.58,1.8-.58-.86h-.29v.86H376v-2.09h.58a.65.65,0,0,1,.65.65.61.61,0,0,1-.29.5l.5.72-.29.22Z" transform="translate(-217.22 -395.21)"/></svg>