<?xml version="1.0" encoding="utf-8"?>
<!-- Generator: Adobe Illustrator 21.0.0, SVG Export Plug-In . SVG Version: 6.00 Build 0)  -->
<svg version="1.1" id="Layer_1" xmlns:x="&ns_extend;" xmlns:i="&ns_ai;" xmlns:graph="&ns_graphs;"
	 xmlns="http://www.w3.org/2000/svg" xmlns:xlink="http://www.w3.org/1999/xlink" x="0px" y="0px" viewBox="0 0 592 840"
	 style="enable-background:new 0 0 592 840;" xml:space="preserve">
<style type="text/css">
	.st0{fill-rule:evenodd;clip-rule:evenodd;fill:#C6CACC;}
</style>
<metadata>
	<sfw  xmlns="&ns_sfw;">
		<slices></slices>
		<sliceSourceBounds  bottomLeftOrigin="true" height="45.4" width="161.1" x="217.2" y="399.4"></sliceSourceBounds>
	</sfw>
</metadata>
<g>
	<path class="st0" d="M254.8,439.4v-24.1c0-3.4-2.2-5.5-6.3-5.5c-4,0-6.3,2.4-6.3,5.5v24h-6.3v-24.1c0-3.4-2.1-5.5-6.2-5.5
		c-4,0-6.3,2.4-6.3,5.5v24h-6.2V405h5.5l0.2,3.2c2.1-2.5,4.3-4,8.9-4c3.7,0,6.8,2,8.3,4.5c2-2.6,5.2-4.5,10.4-4.5
		c6.1,0,10.4,4.4,10.4,10.4v24.7H254.8L254.8,439.4z"/>
	<path class="st0" d="M294.2,418.9l-4.6,4.8h-16.2c0.1,4.9,3.3,10.9,10.2,10.9c3.7,0,6.6-1.2,9.2-3.4l-1.4,6.8
		c-1.9,1.2-4.7,2.2-8.7,2.2c-8.6,0-15.8-7.2-15.8-17.9c0-11.4,7.4-18,14.6-18c8.1,0,12.7,6.6,12.7,13
		C294.3,417.7,294.3,418.5,294.2,418.9L294.2,418.9z M281.7,409.7c-3.7,0-7.3,4-8.1,8.9h14.2c0.1-0.3,0.1-0.9,0.1-1.2
		C288,413.8,285.5,409.7,281.7,409.7L281.7,409.7z"/>
	<path class="st0" d="M318.6,410.1h-9.4v20c0,2.7,1.9,4.3,4.4,4.3c1.3,0,2.4-0.2,3.2-0.6l-1,5.6c-0.7,0.3-1.7,0.4-3,0.4
		c-5.5,0-9.8-3.5-9.8-9.8v-19.9h-5.8V405h5.8v-6.5l6.2-3.3v9.8h10.3L318.6,410.1L318.6,410.1z"/>
	<path class="st0" d="M340.8,410c-4.9,0-10.4,3.3-10.4,11.9v17.5h-6.3V405h6l0.2,5.2c1.6-4,5.5-5.6,10.2-5.6l1,5.5
		C341.3,410,341.1,410,340.8,410L340.8,410z"/>
	<path class="st0" d="M359.6,440.6c-10.5,0-18.8-8.3-18.8-18.7c0-10.5,8.3-18.8,18.8-18.8c10.4,0,18.7,8.3,18.7,18.8
		C378.4,432.4,370.1,440.6,359.6,440.6L359.6,440.6z M364.8,406.7c0.9,1.4,1.8,3,2.5,4.7c1.1-0.4,2.1-1,3-1.6
		C368.7,408.4,366.8,407.3,364.8,406.7L364.8,406.7z M371.8,411.3c-1.1,0.7-2.4,1.4-3.8,2c1,2.7,1.6,5.3,1.8,7.6h5.8
		C375.4,417.2,374,413.8,371.8,411.3L371.8,411.3z M361.9,406c-0.4-0.1-0.9-0.2-1.2-0.2v7.4c1.6-0.1,3.2-0.5,4.8-1
		C364.5,409.9,363.2,407.8,361.9,406L361.9,406z M366.1,414c-1.9,0.8-3.7,1.2-5.5,1.4v5.5h7C367.5,418.5,367,416.3,366.1,414
		L366.1,414z M358.6,405.8c-0.4,0-0.8,0.1-1.2,0.2c-1.4,1.8-2.6,3.9-3.5,6.2c1.5,0.5,3.2,0.9,4.8,1V405.8L358.6,405.8z M369.8,422.9
		c-0.1,2.2-0.7,4.9-1.8,7.6c1.4,0.6,2.7,1.4,3.8,2c2.2-2.5,3.6-5.8,3.8-9.6H369.8L369.8,422.9z M348.9,409.8c0.9,0.6,1.9,1.2,3,1.6
		c0.7-1.7,1.6-3.3,2.6-4.7C352.4,407.3,350.5,408.4,348.9,409.8L348.9,409.8z M360.6,422.9v5.5c1.7,0.1,3.6,0.6,5.5,1.4
		c0.9-2.3,1.4-4.7,1.5-6.8H360.6L360.6,422.9z M358.6,415.4c-1.7-0.1-3.6-0.6-5.5-1.4c-0.9,2.3-1.4,4.5-1.5,6.8h7V415.4L358.6,415.4
		z M367.3,432.4c-0.6,1.7-1.4,3.3-2.4,4.8c2-0.6,3.9-1.7,5.5-3.1C369.4,433.4,368.4,432.9,367.3,432.4L367.3,432.4z M347.5,411.3
		c-2.3,2.5-3.7,5.9-3.9,9.6h5.8c0.2-2.2,0.8-4.9,1.8-7.6C349.8,412.6,348.5,412,347.5,411.3L347.5,411.3z M360.6,430.6v7.4
		c0.4,0,0.8-0.1,1.2-0.1c1.4-1.9,2.6-4,3.5-6.3C363.8,431.1,362.2,430.7,360.6,430.6L360.6,430.6z M358.6,422.9h-7
		c0.1,2.2,0.6,4.5,1.5,6.8c1.9-0.7,3.7-1.2,5.5-1.4V422.9L358.6,422.9z M358.6,430.6c-1.5,0.1-3.1,0.5-4.8,1
		c0.9,2.2,2.2,4.4,3.5,6.3c0.4,0.1,0.9,0.1,1.2,0.1V430.6L358.6,430.6z M351.9,432.4c-1.1,0.5-2.2,1.1-3,1.7
		c1.6,1.4,3.5,2.4,5.5,3.1C353.4,435.7,352.6,434.1,351.9,432.4L351.9,432.4z M349.4,422.9h-5.8c0.2,3.7,1.6,7.1,3.9,9.6
		c1-0.6,2.3-1.4,3.7-2C350.1,427.8,349.6,425.1,349.4,422.9L349.4,422.9z"/>
	<path class="st0" d="M376.6,400c-0.9,0-1.7-0.7-1.7-1.7c0-1,0.8-1.7,1.7-1.7c0.9,0,1.7,0.7,1.7,1.7
		C378.4,399.2,377.6,400,376.6,400L376.6,400z M376.6,396.9c-0.8,0-1.4,0.6-1.4,1.4c0,0.8,0.6,1.4,1.4,1.4s1.4-0.6,1.4-1.4
		C378.1,397.4,377.4,396.9,376.6,396.9L376.6,396.9z M376.6,397.5h-0.3v0.6h0.3c0.2,0,0.4-0.1,0.4-0.3
		C377,397.7,376.8,397.5,376.6,397.5L376.6,397.5z M377.2,399.3l-0.6-0.9h-0.3v0.9H376v-2.1h0.6c0.4,0,0.6,0.3,0.6,0.6
		c0,0.2-0.1,0.4-0.3,0.5l0.5,0.7L377.2,399.3L377.2,399.3z"/>
</g>
</svg>
